<svg fill="none" height="24" viewBox="0 0 24 24" width="24" xmlns="http://www.w3.org/2000/svg"   className="w-20 h-20" ><g fill="#000"><path d="m18.75 7c0-.41421-.3358-.75-.75-.75s-.75.33579-.75.75v10c0 .4142.3358.75.75.75s.75-.3358.75-.75z"/><path d="m14.4539 10.9452c.69.5339.69 1.5756 0 2.1095-2.1382 1.6544-4.52567 2.9584-7.0732 3.8632l-.46605.1656c-.86964.3088-1.78893-.2796-1.90676-1.178-.33685-2.5685-.33685-5.2425 0-7.81102.11783-.89844 1.03712-1.48683 1.90676-1.17796l.46605.16552c2.54753.90479 4.935 2.20879 7.0732 3.86316z"/></g></svg>