<svg fill="none" height="24" viewBox="0 0 24 24" width="24" xmlns="http://www.w3.org/2000/svg"><g fill="#000"><path d="m6.75 7c0-.41421-.33579-.75-.75-.75s-.75.33579-.75.75v10c0 .4142.33579.75.75.75s.75-.3358.75-.75z"/><path d="m9.85209 12.6593c-.43131-.3337-.43131-.9849 0-1.3186 2.09621-1.62198 4.43691-2.90043 6.93451-3.78748l.4661-.16553c.5618-.19955 1.1661.18063 1.2436.77182.3312 2.52539.3312 5.15559 0 7.68099-.0775.5912-.6818.9714-1.2436.7718l-.4661-.1655c-2.4976-.8871-4.8383-2.1655-6.93451-3.7875z"/></g></svg>